<svg width="531" height="124" viewBox="0 0 531 124" fill="none" xmlns="http://www.w3.org/2000/svg">
<path d="M12.3549 83.3177L10.4149 83.3347L11.8984 76.8814L5.47869 76.9377L3.99519 83.3909L2.05526 83.4079L5.25366 69.5194L7.19358 69.5024L5.84447 75.3144L12.2642 75.2581L13.6133 69.4461L15.5533 69.4291L12.3549 83.3177ZM19.3702 83.5162C18.7835 83.5213 18.2894 83.439 17.8879 83.2692C17.4998 83.0992 17.1777 82.8687 16.9218 82.5776C16.6793 82.2864 16.5029 81.9412 16.3927 81.5422C16.2826 81.1431 16.2255 80.717 16.2215 80.2636C16.2185 79.917 16.2422 79.5768 16.2926 79.243C16.3562 78.8957 16.4265 78.5484 16.5035 78.2011L17.7368 72.8701L19.5967 72.8538L18.4599 77.7839C18.3959 78.0912 18.3124 78.4519 18.2094 78.8662C18.1063 79.2804 18.0566 79.6942 18.0602 80.1075C18.0623 80.3475 18.0844 80.5807 18.1264 80.807C18.1816 81.0198 18.2699 81.2124 18.3914 81.3847C18.5262 81.5435 18.7007 81.6753 18.9149 81.7801C19.1291 81.8716 19.3961 81.9159 19.7161 81.9131C20.2894 81.9081 20.7884 81.7837 21.2129 81.5399C21.6507 81.2828 22.0148 80.9862 22.3052 80.6503C22.3166 80.4369 22.3347 80.2167 22.3594 79.9898C22.384 79.7629 22.4285 79.5159 22.4929 79.2486L23.9765 72.8154L25.8365 72.7991L24.3142 79.3927C24.2502 79.6999 24.1929 80.0004 24.1421 80.2942C24.1046 80.5746 24.0871 80.8681 24.0898 81.1747C24.0925 81.4814 24.1219 81.7878 24.1779 82.094C24.2339 82.4002 24.3301 82.7327 24.4666 83.0915L22.8288 83.3459C22.7608 83.1998 22.6927 83.0337 22.6244 82.8476C22.5561 82.6616 22.501 82.462 22.4592 82.2491C22.3137 82.3837 22.1416 82.5252 21.9429 82.6736C21.7442 82.822 21.512 82.9574 21.2464 83.0797C20.9941 83.2019 20.7084 83.3044 20.3891 83.3872C20.0831 83.4699 19.7435 83.5129 19.3702 83.5162ZM38.5102 72.468C39.0968 72.4629 39.5909 72.5519 39.9926 72.735C40.4074 72.9047 40.7361 73.1418 40.9788 73.4464C41.2348 73.7508 41.418 74.1092 41.5283 74.5216C41.6384 74.9207 41.6955 75.3469 41.6995 75.8002C41.7021 76.0935 41.6782 76.4137 41.6279 76.7608C41.5908 77.0945 41.5337 77.4217 41.4565 77.7424L40.2232 83.0734L38.3632 83.0897L39.5001 78.1595C39.5641 77.8523 39.6344 77.5117 39.7111 77.1377C39.8011 76.7502 39.8444 76.3698 39.8411 75.9965C39.8389 75.7431 39.8034 75.4968 39.7347 75.2574C39.6792 75.0178 39.5774 74.8121 39.4292 74.64C39.2944 74.4679 39.0998 74.3296 38.8456 74.2251C38.5913 74.1207 38.2775 74.0701 37.9042 74.0734C37.4776 74.0771 37.065 74.1674 36.6665 74.3442C36.2679 74.5077 35.9361 74.6773 35.671 74.853C35.6993 75.0394 35.7209 75.2259 35.7359 75.4124C35.764 75.5855 35.7789 75.7587 35.7804 75.9321C35.7831 76.2387 35.7592 76.5523 35.7087 76.8727C35.6713 77.1797 35.6207 77.4868 35.5567 77.7941L34.3234 83.1251L32.4635 83.1414L33.6003 78.2113C33.6643 77.904 33.7346 77.5567 33.8112 77.1694C33.8878 76.782 33.9244 76.395 33.921 76.0084C33.9188 75.755 33.89 75.5153 33.8347 75.2891C33.7793 75.0496 33.6841 74.8437 33.5493 74.6716C33.4278 74.4993 33.2599 74.3674 33.0458 74.276C32.8315 74.1712 32.5577 74.1202 32.2244 74.1232C31.8911 74.1261 31.5646 74.1489 31.245 74.1917C30.9387 74.2344 30.6792 74.29 30.4664 74.3586L28.4236 83.1768L26.5637 83.1931L28.876 73.1725C29.4743 72.9805 30.1263 72.8282 30.832 72.7153C31.5509 72.589 32.1904 72.5234 32.7504 72.5185C33.3104 72.5136 33.7845 72.6094 34.173 72.806C34.5612 72.9893 34.8701 73.2399 35.0996 73.5579C35.2321 73.4634 35.4111 73.3552 35.6368 73.2332C35.8757 73.1111 36.1414 72.9954 36.4337 72.8862C36.7395 72.7769 37.0653 72.6807 37.4113 72.5976C37.7705 72.5145 38.1368 72.4713 38.5102 72.468ZM50.2463 83.1055C50.1784 82.9595 50.1103 82.8001 50.0421 82.6273C49.9738 82.4412 49.9188 82.2484 49.8771 82.0487C49.5861 82.318 49.1951 82.5881 48.7041 82.8591C48.2131 83.13 47.6077 83.2687 46.8877 83.275C46.3011 83.2801 45.7936 83.1912 45.3653 83.0083C44.9503 82.8253 44.6081 82.5683 44.3385 82.2373C44.0689 81.9063 43.8655 81.5147 43.7282 81.0626C43.6042 80.6103 43.5398 80.1109 43.535 79.5642C43.5272 78.6709 43.6662 77.7963 43.9521 76.9405C44.2512 76.0845 44.6979 75.3205 45.292 74.6486C45.8862 73.9767 46.6347 73.4302 47.5377 73.0089C48.4408 72.5876 49.4989 72.3717 50.7122 72.361C51.0722 72.3579 51.4925 72.3942 51.9732 72.47C52.4539 72.5458 52.8684 72.6755 53.2167 72.8591L51.7318 79.1524C51.6678 79.4596 51.6103 79.7535 51.5595 80.0339C51.5219 80.3143 51.5045 80.6078 51.5072 80.9144C51.5099 81.2211 51.5393 81.5342 51.5954 81.8537C51.6514 82.1599 51.7477 82.4924 51.8842 82.8512L50.2463 83.1055ZM47.2538 81.6917C47.8138 81.6868 48.2927 81.5626 48.6906 81.3191C49.0885 81.0756 49.4327 80.7926 49.7232 80.47C49.7346 80.2433 49.7525 80.0098 49.7771 79.7695C49.8149 79.5159 49.8593 79.2621 49.9104 79.0083L51.0669 74.038C51 74.0119 50.8865 73.9929 50.7264 73.981C50.5796 73.9689 50.4462 73.9634 50.3262 73.9645C49.5663 73.9712 48.8809 74.1238 48.2702 74.4225C47.6594 74.7212 47.1362 75.1192 46.7006 75.6163C46.2781 76.1001 45.9498 76.6696 45.7155 77.325C45.4945 77.967 45.387 78.6413 45.3932 79.3479C45.3957 79.6279 45.4249 79.9143 45.4808 80.2072C45.5365 80.4867 45.6321 80.7392 45.7674 80.9647C45.9159 81.1768 46.1042 81.3551 46.3321 81.4998C46.5733 81.631 46.8805 81.695 47.2538 81.6917ZM55.864 82.9363L54.0041 82.9526L56.3163 72.932C56.928 72.7399 57.5867 72.5875 58.2924 72.4746C59.0113 72.3483 59.6508 72.2827 60.2107 72.2778C60.8107 72.2725 61.3248 72.3547 61.753 72.5243C62.1943 72.6804 62.5496 72.904 62.8189 73.195C63.088 73.4726 63.2843 73.8176 63.408 74.2299C63.5448 74.6287 63.6153 75.0681 63.6195 75.548C63.6222 75.8547 63.5984 76.1816 63.5481 76.5287C63.4977 76.8625 63.434 77.2031 63.3571 77.5504L62.1237 82.8814L60.2638 82.8977L61.4006 77.9676C61.4907 77.5935 61.574 77.2127 61.6506 76.8254C61.7406 76.4379 61.784 76.0708 61.781 75.7242C61.7763 75.1909 61.6258 74.7522 61.3294 74.4081C61.033 74.0507 60.4847 73.8755 59.6848 73.8825C59.3515 73.8854 59.025 73.9083 58.7053 73.9511C58.3857 73.9939 58.1195 74.0495 57.9068 74.1181L55.864 82.9363ZM66.8792 82.8398L65.0193 82.8561L67.428 72.4345L69.2879 72.4182L66.8792 82.8398ZM68.9315 70.5413C68.6248 70.544 68.364 70.4529 68.149 70.2681C67.9474 70.0832 67.8451 69.8241 67.8422 69.4908C67.8385 69.0642 67.9689 68.7297 68.2334 68.4873C68.4979 68.2317 68.7968 68.1024 69.1301 68.0995C69.4367 68.0968 69.6976 68.1945 69.9127 68.3926C70.1276 68.5774 70.2366 68.8431 70.2397 69.1898C70.2432 69.5898 70.1061 69.9176 69.8283 70.1734C69.5504 70.4159 69.2515 70.5385 68.9315 70.5413ZM73.5618 83.0612C72.5619 83.07 71.8267 82.8564 71.3561 82.4205C70.8856 81.9846 70.6467 81.3467 70.6393 80.5067C70.6346 79.9601 70.7218 79.2593 70.9009 78.4043L72.9628 69.4859L74.9 69.1489L74.1482 72.3756L77.6881 72.3446L77.3218 73.9079L73.7819 73.9389L72.7223 78.5484C72.5678 79.1764 72.4926 79.7238 72.4966 80.1904C72.5005 80.6304 72.6233 80.9493 72.865 81.1472C73.1067 81.3318 73.5075 81.4216 74.0675 81.4167C74.4541 81.4133 74.8336 81.35 75.2058 81.2267C75.578 81.0901 75.8636 80.9676 76.0626 80.8592L76.2165 82.4379C76.0175 82.5597 75.6787 82.6893 75.1999 82.8268C74.7212 82.9777 74.1752 83.0558 73.5618 83.0612ZM81.8578 81.0284C82.3574 80.224 82.8102 79.3933 83.216 78.5364C83.6217 77.6662 83.9745 76.8364 84.2742 76.047C84.5873 75.2576 84.8477 74.5353 85.0553 73.8801C85.2627 73.2116 85.4114 72.6769 85.5012 72.2761L87.4411 72.2591C87.2989 72.7671 87.0978 73.4022 86.8378 74.1645C86.5777 74.9135 86.2582 75.7296 85.8792 76.613C85.5135 77.4829 85.0947 78.3799 84.6228 79.3041C84.1641 80.2148 83.6584 81.0926 83.1058 81.9375C82.6846 82.5679 82.2631 83.1583 81.8413 83.7087C81.4195 84.2724 80.9638 84.7564 80.474 85.1607C79.9976 85.5782 79.4671 85.9029 78.8824 86.1347C78.2979 86.3798 77.639 86.5056 76.9057 86.512C76.5323 86.5153 76.1853 86.4717 75.8645 86.3811C75.5437 86.2906 75.3095 86.1927 75.1619 86.0873L75.7885 84.5617C75.9228 84.6672 76.1035 84.7523 76.3308 84.817C76.5581 84.895 76.8118 84.9328 77.0918 84.9303C77.8651 84.9236 78.5168 84.7312 79.0468 84.3532C79.5902 83.9751 80.0992 83.4773 80.5738 82.8597C80.0663 81.2508 79.6448 79.5544 79.3091 77.7706C78.9868 75.9867 78.7843 74.1751 78.7015 72.3357L80.6014 72.3191C80.62 72.9189 80.6591 73.5786 80.7188 74.2981C80.7783 75.0043 80.8581 75.7436 80.9582 76.5161C81.0715 77.2752 81.1982 78.0407 81.3384 78.8129C81.4918 79.5849 81.6649 80.3234 81.8578 81.0284ZM98.4943 71.4622C98.3089 71.6105 98.0836 71.7658 97.8183 71.9282C97.5663 72.0771 97.2876 72.2262 96.9822 72.3755C96.6902 72.5248 96.3848 72.6674 96.0659 72.8036C95.747 72.9264 95.4413 73.0357 95.1488 73.1316L94.8353 71.5943C95.6327 71.294 96.4427 70.9135 97.2654 70.453C98.1013 69.979 98.8961 69.392 99.65 68.692L100.99 68.6803L97.7916 82.5688L95.9317 82.5851L98.4943 71.4622ZM105.829 81.1983C106.109 81.1959 106.389 81.1667 106.668 81.111C106.961 81.0551 107.214 80.9662 107.426 80.8443C107.652 80.7223 107.83 80.5608 107.962 80.3596C108.106 80.145 108.178 79.8844 108.175 79.5777C108.173 79.3777 108.138 79.2047 108.07 79.0586C108.002 78.8992 107.894 78.7535 107.746 78.6214C107.599 78.4894 107.411 78.3643 107.183 78.2463C106.969 78.1149 106.707 77.9705 106.399 77.8132C106.091 77.6692 105.81 77.525 105.555 77.3806C105.301 77.2361 105.073 77.0648 104.871 76.8666C104.683 76.6682 104.534 76.4362 104.425 76.1704C104.316 75.8914 104.259 75.5585 104.256 75.1719C104.247 74.1719 104.6 73.3688 105.315 72.7625C106.03 72.1429 107.074 71.8271 108.447 71.815C109.087 71.8094 109.647 71.8712 110.129 72.0003C110.623 72.116 110.964 72.2263 111.151 72.3313L110.465 73.8574C110.277 73.7524 109.976 73.6417 109.562 73.5253C109.147 73.4089 108.687 73.353 108.18 73.3574C107.927 73.3596 107.674 73.3885 107.421 73.4441C107.168 73.4996 106.936 73.595 106.724 73.7302C106.525 73.8519 106.359 74.0201 106.228 74.2346C106.11 74.4356 106.052 74.6828 106.054 74.9761C106.058 75.3361 106.2 75.6349 106.482 75.8724C106.764 76.0966 107.186 76.3329 107.749 76.5813C108.097 76.7383 108.405 76.9022 108.673 77.0732C108.954 77.2308 109.189 77.4154 109.378 77.6271C109.58 77.8253 109.728 78.064 109.824 78.3432C109.933 78.6223 109.989 78.9551 109.993 79.3418C109.998 79.9017 109.895 80.396 109.686 80.8245C109.476 81.253 109.179 81.609 108.795 81.8924C108.424 82.1756 107.979 82.3862 107.461 82.5241C106.942 82.6753 106.376 82.7536 105.763 82.759C105.309 82.7629 104.896 82.7332 104.522 82.6698C104.161 82.6197 103.841 82.5558 103.56 82.4783C103.293 82.4006 103.065 82.3226 102.878 82.2442C102.704 82.1524 102.57 82.0803 102.476 82.0277L103.183 80.5015C103.277 80.554 103.404 80.6196 103.564 80.6982C103.739 80.7766 103.939 80.8549 104.167 80.9329C104.407 81.0108 104.668 81.0752 104.948 81.126C105.229 81.1769 105.522 81.201 105.829 81.1983ZM115.045 82.6976C114.045 82.7064 113.309 82.4928 112.839 82.0569C112.368 81.621 112.129 80.9831 112.122 80.1431C112.117 79.5965 112.205 78.8957 112.384 78.0408L114.446 69.1223L116.383 68.7853L115.631 72.0121L119.171 71.981L118.805 73.5443L115.265 73.5753L114.205 78.1848C114.051 78.8128 113.975 79.3602 113.979 79.8268C113.983 80.2668 114.106 80.5858 114.348 80.7836C114.589 80.9682 114.99 81.058 115.55 81.0531C115.937 81.0497 116.316 80.9864 116.689 80.8631C117.061 80.7265 117.346 80.604 117.545 80.4956L117.699 82.0743C117.5 82.1961 117.161 82.3257 116.683 82.4632C116.204 82.6141 115.658 82.6922 115.045 82.6976ZM126.304 80.0388C126.242 80.5194 126.133 81.007 125.977 81.5017C125.821 81.9965 125.625 82.4782 125.39 82.947C125.167 83.4289 124.911 83.8845 124.622 84.3137C124.332 84.7563 124.029 85.159 123.712 85.5218L122.448 85.0128C122.711 84.6505 122.948 84.2551 123.157 83.8266C123.38 83.3979 123.57 82.9629 123.726 82.5215C123.882 82.0801 124.011 81.6523 124.115 81.2381C124.217 80.8105 124.287 80.4165 124.324 80.0562L126.304 80.0388ZM135.623 68.2367C137.103 68.2237 138.279 68.5134 139.151 69.1058C140.023 69.6982 140.464 70.5744 140.474 71.7343C140.484 72.9076 140.146 73.8973 139.46 74.7033C138.787 75.4959 137.832 76.071 136.595 76.4285C136.757 76.7071 136.947 77.0654 137.164 77.5035C137.381 77.9283 137.605 78.4064 137.837 78.9377C138.068 79.4557 138.293 80.0004 138.511 80.5719C138.729 81.13 138.921 81.675 139.085 82.2069L137.106 82.2242C136.914 81.7192 136.717 81.2076 136.512 80.6894C136.308 80.1712 136.096 79.673 135.879 79.1949C135.675 78.7166 135.464 78.2718 135.247 77.8604C135.044 77.4355 134.854 77.0638 134.677 76.7453C134.504 76.7602 134.331 76.775 134.158 76.7899C133.984 76.7914 133.811 76.7929 133.638 76.7944L132.098 76.8079L130.846 82.2791L128.906 82.2961L132.066 68.5879C132.625 68.4497 133.217 68.3578 133.843 68.3123C134.47 68.2668 135.063 68.2416 135.623 68.2367ZM135.397 69.8787C134.451 69.887 133.878 69.9187 133.678 69.9738L132.464 75.2247L133.644 75.2143C134.191 75.2095 134.75 75.1646 135.323 75.0796C135.895 74.9946 136.414 74.8367 136.879 74.6059C137.357 74.3617 137.74 74.0317 138.03 73.6158C138.333 73.1865 138.481 72.6251 138.475 71.9318C138.469 71.1852 138.178 70.6544 137.601 70.3394C137.039 70.0244 136.304 69.8708 135.397 69.8787ZM143.31 76.7097C144.083 76.6762 144.789 76.6234 145.428 76.5511C146.068 76.4655 146.62 76.334 147.085 76.1565C147.55 75.9658 147.908 75.716 148.158 75.4071C148.422 75.0981 148.552 74.697 148.548 74.2036C148.547 74.0837 148.519 73.9572 148.465 73.8244C148.423 73.6914 148.342 73.5721 148.221 73.4665C148.114 73.3474 147.96 73.2554 147.759 73.1905C147.558 73.1123 147.311 73.0744 147.018 73.077C146.551 73.0811 146.112 73.185 145.701 73.3886C145.302 73.5921 144.945 73.8619 144.628 74.198C144.311 74.5208 144.041 74.9032 143.818 75.3451C143.595 75.7738 143.425 76.2286 143.31 76.7097ZM145.26 82.4128C144.58 82.4187 143.992 82.3306 143.497 82.1482C143.002 81.9526 142.587 81.6895 142.25 81.3591C141.914 81.0154 141.664 80.6176 141.5 80.1656C141.336 79.7137 141.252 79.2345 141.247 78.7278C141.239 77.7945 141.371 76.8933 141.644 76.0242C141.916 75.1551 142.309 74.385 142.823 73.7138C143.338 73.0426 143.966 72.5104 144.709 72.1172C145.453 71.7107 146.297 71.5033 147.244 71.495C147.791 71.4902 148.258 71.5594 148.646 71.7027C149.047 71.8325 149.369 72.0164 149.611 72.2543C149.866 72.492 150.055 72.7704 150.178 73.0893C150.301 73.3949 150.364 73.7144 150.367 74.0477C150.372 74.6743 150.263 75.2087 150.041 75.6506C149.818 76.0793 149.521 76.4419 149.15 76.7385C148.779 77.0351 148.341 77.2656 147.836 77.43C147.344 77.5943 146.825 77.7255 146.28 77.8237C145.747 77.9217 145.201 77.9931 144.641 78.038C144.095 78.0695 143.575 78.1007 143.082 78.1317C143.07 78.2385 143.064 78.3252 143.064 78.3919C143.065 78.4585 143.065 78.5119 143.066 78.5519C143.068 78.8585 143.104 79.1515 143.173 79.431C143.256 79.6969 143.398 79.9357 143.6 80.1472C143.802 80.3455 144.076 80.5031 144.424 80.62C144.785 80.7369 145.252 80.7928 145.825 80.7878C146.079 80.7855 146.339 80.7633 146.605 80.7209C146.884 80.6651 147.144 80.6029 147.383 80.5341C147.636 80.4519 147.855 80.3766 148.041 80.3083C148.241 80.2266 148.38 80.152 148.459 80.0846L148.633 81.6632C148.368 81.8122 147.936 81.9693 147.337 82.1346C146.752 82.313 146.06 82.4058 145.26 82.4128ZM153.889 77.497C153.824 77.7909 153.76 78.0781 153.696 78.3587C153.632 78.6393 153.601 78.9062 153.603 79.1595C153.607 79.6128 153.717 79.9719 153.933 80.2367C154.162 80.5014 154.576 80.6644 155.177 80.7258L154.77 82.2494C154.223 82.2409 153.756 82.165 153.368 82.0217C152.993 81.865 152.685 81.661 152.443 81.4098C152.214 81.1585 152.045 80.8599 151.935 80.5142C151.825 80.1685 151.769 79.789 151.765 79.3757C151.762 79.069 151.786 78.7488 151.836 78.415C151.887 78.0812 151.957 77.7339 152.047 77.3731L154.475 66.8714L156.413 66.5344L153.889 77.497ZM158.536 82.0364L156.676 82.0527L159.085 71.6312L160.945 71.6149L158.536 82.0364ZM160.588 69.7379C160.281 69.7406 160.021 69.6496 159.806 69.4648C159.604 69.2799 159.502 69.0208 159.499 68.6875C159.495 68.2608 159.626 67.9263 159.89 67.684C160.155 67.4283 160.453 67.299 160.787 67.2961C161.093 67.2934 161.354 67.3911 161.569 67.5893C161.784 67.7741 161.893 68.0398 161.896 68.3864C161.9 68.7864 161.763 69.1143 161.485 69.3701C161.207 69.6125 160.908 69.7351 160.588 69.7379ZM164.195 84.1469C164.742 84.1421 165.221 84.0712 165.633 83.9343C166.045 83.7973 166.397 83.6009 166.688 83.345C166.993 83.089 167.237 82.7868 167.42 82.4386C167.604 82.0903 167.747 81.6957 167.85 81.2547L167.926 80.8741C167.661 81.0231 167.302 81.1729 166.85 81.3235C166.398 81.4741 165.932 81.5516 165.452 81.5558C164.372 81.5652 163.537 81.3059 162.945 80.7777C162.367 80.2361 162.074 79.4786 162.065 78.5053C162.058 77.612 162.197 76.7375 162.483 75.8816C162.768 75.0257 163.208 74.2618 163.802 73.5899C164.397 72.918 165.139 72.3782 166.028 71.9704C166.918 71.5492 167.963 71.3334 169.163 71.3229C169.349 71.3212 169.556 71.3327 169.783 71.3574C170.023 71.382 170.264 71.4199 170.504 71.4711C170.758 71.5089 170.998 71.5668 171.226 71.6448C171.466 71.7227 171.674 71.8142 171.848 71.9193L169.748 81.0381C169.581 81.7596 169.373 82.4081 169.125 82.9836C168.877 83.5592 168.534 84.0489 168.098 84.4527C167.661 84.8565 167.097 85.1682 166.406 85.3876C165.715 85.6203 164.849 85.7412 163.809 85.7503C163.236 85.7554 162.668 85.6803 162.107 85.5252C161.546 85.3835 161.071 85.201 160.682 84.9777L161.368 83.4116C161.677 83.6356 162.085 83.812 162.593 83.9409C163.101 84.0831 163.635 84.1518 164.195 84.1469ZM165.839 79.9923C166.372 79.9877 166.858 79.8901 167.296 79.6995C167.748 79.4956 168.093 79.3059 168.331 79.1304L169.738 73.0379C169.604 73.0124 169.451 72.9871 169.277 72.9619C169.104 72.9368 168.937 72.9249 168.777 72.9263C168.057 72.9326 167.398 73.0784 166.801 73.3636C166.203 73.6356 165.686 74.0068 165.25 74.4773C164.828 74.9343 164.499 75.4706 164.264 76.086C164.03 76.6881 163.915 77.3157 163.921 77.9691C163.927 78.689 164.085 79.2077 164.395 79.525C164.717 79.8421 165.199 79.9979 165.839 79.9923ZM174.512 81.8964L172.652 81.9127L175.061 71.4912L176.921 71.4749L174.512 81.8964ZM176.564 69.5979C176.257 69.6006 175.997 69.5096 175.782 69.3248C175.58 69.1399 175.478 68.8808 175.475 68.5474C175.471 68.1208 175.601 67.7863 175.866 67.544C176.13 67.2883 176.429 67.159 176.763 67.1561C177.069 67.1534 177.33 67.2511 177.545 67.4492C177.76 67.634 177.869 67.8998 177.872 68.2464C177.876 68.6464 177.739 68.9743 177.461 69.23C177.183 69.4725 176.884 69.5951 176.564 69.5979ZM181.614 82.0941C180.521 82.1037 179.658 81.7913 179.026 81.1568C178.407 80.5089 178.092 79.6182 178.082 78.485C178.076 77.7117 178.175 76.8974 178.381 76.0422C178.6 75.187 178.947 74.3972 179.42 73.673C179.894 72.9489 180.509 72.3501 181.265 71.8768C182.021 71.4035 182.938 71.1621 184.018 71.1527C185.112 71.1431 185.968 71.4622 186.587 72.1102C187.219 72.7447 187.54 73.6285 187.55 74.7618C187.557 75.5351 187.451 76.3494 187.232 77.2047C187.026 78.0599 186.686 78.8496 186.212 79.5737C185.739 80.2979 185.124 80.8967 184.368 81.37C183.612 81.8433 182.694 82.0847 181.614 82.0941ZM181.92 80.5114C182.52 80.5061 183.052 80.3281 183.516 79.9774C183.993 79.6265 184.389 79.183 184.704 78.6469C185.033 78.0974 185.281 77.4952 185.448 76.8403C185.616 76.1855 185.697 75.5514 185.692 74.9381C185.686 74.2582 185.534 73.7195 185.238 73.322C184.941 72.9246 184.432 72.7291 183.712 72.7354C183.112 72.7407 182.574 72.9187 182.097 73.2696C181.633 73.6203 181.237 74.0705 180.909 74.62C180.593 75.1562 180.352 75.7516 180.184 76.4065C180.017 77.0613 179.936 77.6954 179.941 78.3087C179.947 78.9886 180.098 79.5273 180.395 79.9247C180.692 80.3222 181.2 80.5177 181.92 80.5114ZM190.585 81.7555L188.725 81.7718L191.038 71.7512C191.649 71.5591 192.308 71.4067 193.014 71.2938C193.733 71.1675 194.372 71.1019 194.932 71.097C195.532 71.0917 196.046 71.1739 196.474 71.3435C196.916 71.4996 197.271 71.7232 197.54 72.0142C197.809 72.2918 198.006 72.6368 198.129 73.049C198.266 73.4479 198.337 73.8873 198.341 74.3672C198.344 74.6739 198.32 75.0008 198.27 75.3479C198.219 75.6817 198.155 76.0223 198.078 76.3696L196.845 81.7006L194.985 81.7169L196.122 76.7868C196.212 76.4126 196.295 76.0319 196.372 75.6446C196.462 75.2571 196.505 74.89 196.502 74.5434C196.498 74.0101 196.347 73.5714 196.051 73.2273C195.754 72.8699 195.206 72.6947 194.406 72.7017C194.073 72.7046 193.746 72.7275 193.427 72.7703C193.107 72.8131 192.841 72.8687 192.628 72.9373L190.585 81.7555ZM214.532 70.5052C214.538 71.2118 214.431 71.8328 214.209 72.3681C213.987 72.9034 213.684 73.3994 213.302 73.8561C212.919 74.2995 212.476 74.7234 211.973 75.1278C211.469 75.5189 210.933 75.9303 210.363 76.362C210.032 76.6182 209.681 76.8946 209.311 77.1912C208.94 77.4878 208.589 77.7976 208.259 78.1205C207.928 78.43 207.638 78.7526 207.387 79.0881C207.137 79.4104 206.959 79.7319 206.856 80.0528L212.875 80.0001L212.529 81.5632L204.429 81.6342C204.53 80.9266 204.711 80.285 204.973 79.7093C205.247 79.1336 205.57 78.6041 205.939 78.1208C206.321 77.6374 206.737 77.1938 207.187 76.7898C207.65 76.3857 208.127 75.9949 208.617 75.6172C209.133 75.226 209.63 74.8483 210.107 74.4841C210.597 74.1065 211.027 73.7294 211.397 73.3528C211.767 72.9629 212.063 72.5602 212.287 72.1449C212.51 71.7296 212.619 71.2753 212.615 70.782C212.61 70.222 212.453 69.7901 212.143 69.4861C211.847 69.1687 211.359 69.0129 210.679 69.0189C210.306 69.0222 209.953 69.0719 209.62 69.1682C209.288 69.2644 208.989 69.3804 208.723 69.5161C208.458 69.6517 208.219 69.8005 208.007 69.9624C207.809 70.1108 207.65 70.2455 207.531 70.3665L206.878 68.9322C207.063 68.7573 207.295 68.5819 207.574 68.4061C207.852 68.2303 208.164 68.0676 208.509 67.9179C208.868 67.7681 209.247 67.6447 209.646 67.5479C210.059 67.4509 210.478 67.4006 210.905 67.3969C211.545 67.3913 212.092 67.4798 212.547 67.6625C213.015 67.8317 213.391 68.0618 213.673 68.3526C213.969 68.6434 214.185 68.9748 214.322 69.347C214.459 69.7191 214.529 70.1052 214.532 70.5052ZM217.518 81.5194L215.658 81.5357L217.97 71.5151C218.582 71.3231 219.241 71.1706 219.946 71.0578C220.665 70.9315 221.305 70.8658 221.865 70.8609C222.465 70.8557 222.979 70.9378 223.407 71.1074C223.848 71.2636 224.204 71.4871 224.473 71.7781C224.742 72.0558 224.938 72.4007 225.062 72.813C225.199 73.2118 225.269 73.6512 225.273 74.1312C225.276 74.4378 225.252 74.7647 225.202 75.1119C225.152 75.4456 225.088 75.7862 225.011 76.1336L223.778 81.4646L221.918 81.4809L223.055 76.5507C223.145 76.1766 223.228 75.7958 223.305 75.4085C223.395 75.021 223.438 74.654 223.435 74.3073C223.43 73.774 223.28 73.3353 222.983 72.9912C222.687 72.6338 222.139 72.4586 221.339 72.4656C221.005 72.4685 220.679 72.4914 220.359 72.5342C220.04 72.577 219.773 72.6327 219.561 72.7012L217.518 81.5194ZM235.115 79.3051C235.118 79.6118 235.147 79.9249 235.203 80.2444C235.259 80.5506 235.355 80.8831 235.492 81.2419L233.854 81.4963C233.705 81.2042 233.588 80.8519 233.505 80.4393C233.214 80.7085 232.823 80.9786 232.332 81.2496C231.841 81.5206 231.235 81.6592 230.515 81.6655C229.929 81.6707 229.421 81.5885 228.993 81.4189C228.565 81.2359 228.209 80.9791 227.926 80.6482C227.643 80.3173 227.433 79.9258 227.296 79.4737C227.159 79.0082 227.087 78.5021 227.083 77.9555C227.075 77.0622 227.214 76.1876 227.5 75.3317C227.799 74.4757 228.239 73.7118 228.82 73.0401C229.414 72.3682 230.156 71.8283 231.046 71.4205C231.935 70.9993 232.973 70.7836 234.16 70.7732C234.307 70.7719 234.453 70.7773 234.6 70.7893C234.747 70.8014 234.9 70.82 235.061 70.8453L236.14 66.1556L238.077 65.8187L235.359 77.5429C235.295 77.8502 235.238 78.144 235.187 78.4245C235.136 78.7049 235.112 78.9985 235.115 79.3051ZM230.881 80.0823C231.441 80.0774 231.914 79.9599 232.298 79.7298C232.696 79.4863 233.041 79.21 233.331 78.9008C233.343 78.6873 233.361 78.4605 233.385 78.2203C233.423 77.9666 233.474 77.6928 233.538 77.3989L234.694 72.3886C234.574 72.3629 234.441 72.3508 234.294 72.3521C234.147 72.34 234.007 72.3346 233.874 72.3357C233.114 72.3424 232.428 72.4951 231.818 72.7938C231.207 73.0925 230.684 73.4904 230.248 73.9876C229.826 74.4846 229.497 75.0609 229.263 75.7163C229.042 76.3582 228.935 77.0325 228.941 77.7392C228.944 78.0458 228.979 78.3389 229.049 78.6183C229.118 78.8977 229.227 79.1501 229.375 79.3754C229.524 79.5875 229.719 79.7591 229.96 79.8903C230.214 80.0214 230.521 80.0854 230.881 80.0823ZM238.653 81.5942C238.279 81.5975 237.985 81.5001 237.77 81.3019C237.555 81.1038 237.446 80.8114 237.442 80.4248C237.438 79.9448 237.575 79.5769 237.853 79.3211C238.144 79.0519 238.476 78.9157 238.849 78.9124C239.222 78.9091 239.517 79.0132 239.732 79.2247C239.96 79.4227 240.076 79.7217 240.08 80.1217C240.082 80.3483 240.037 80.5554 239.945 80.7429C239.867 80.9169 239.761 81.0711 239.629 81.2056C239.497 81.3268 239.344 81.4215 239.172 81.4897C238.999 81.5578 238.826 81.5927 238.653 81.5942ZM243.574 81.5511C243.201 81.5544 242.907 81.4569 242.692 81.2588C242.477 81.0607 242.367 80.7683 242.364 80.3816C242.36 79.9017 242.496 79.5338 242.774 79.278C243.065 79.0088 243.397 78.8725 243.771 78.8693C244.144 78.866 244.438 78.9701 244.653 79.1815C244.882 79.3795 244.998 79.6785 245.001 80.0785C245.003 80.3052 244.959 80.5122 244.867 80.6997C244.788 80.8737 244.683 81.028 244.551 81.1625C244.419 81.2837 244.266 81.3783 244.093 81.4465C243.921 81.5147 243.748 81.5496 243.574 81.5511ZM248.496 81.5079C248.123 81.5112 247.828 81.4138 247.613 81.2157C247.398 81.0175 247.289 80.7252 247.286 80.3385C247.281 79.8585 247.418 79.4906 247.696 79.2349C247.987 78.9656 248.319 78.8294 248.692 78.8261C249.066 78.8228 249.36 78.9269 249.575 79.1384C249.804 79.3364 249.92 79.6354 249.923 80.0354C249.925 80.262 249.88 80.4691 249.788 80.6566C249.71 80.8306 249.605 80.9849 249.473 81.1194C249.34 81.2405 249.188 81.3352 249.015 81.4034C248.842 81.4716 248.669 81.5064 248.496 81.5079Z" fill="#0000FF"/>
<path d="M4.2 26.52C5.72 26.08 7.68 25.68 10.08 25.32C12.48 24.92 15 24.72 17.64 24.72C20.32 24.72 22.54 25.08 24.3 25.8C26.1 26.48 27.52 27.46 28.56 28.74C29.6 30.02 30.34 31.54 30.78 33.3C31.22 35.06 31.44 37.02 31.44 39.18V57H22.5V40.26C22.5 37.38 22.12 35.34 21.36 34.14C20.6 32.94 19.18 32.34 17.1 32.34C16.46 32.34 15.78 32.38 15.06 32.46C14.34 32.5 13.7 32.56 13.14 32.64V57H4.2V26.52ZM38.032 41.22C38.032 38.94 38.392 36.8 39.112 34.8C39.872 32.76 40.952 31 42.352 29.52C43.752 28 45.452 26.8 47.452 25.92C49.452 25.04 51.732 24.6 54.292 24.6C55.972 24.6 57.512 24.76 58.912 25.08C60.312 25.36 61.672 25.78 62.992 26.34L61.132 33.48C60.292 33.16 59.372 32.88 58.372 32.64C57.372 32.4 56.252 32.28 55.012 32.28C52.372 32.28 50.392 33.1 49.072 34.74C47.792 36.38 47.152 38.54 47.152 41.22C47.152 44.06 47.752 46.26 48.952 47.82C50.192 49.38 52.332 50.16 55.372 50.16C56.452 50.16 57.612 50.06 58.852 49.86C60.092 49.66 61.232 49.34 62.272 48.9L63.532 56.22C62.492 56.66 61.192 57.04 59.632 57.36C58.072 57.68 56.352 57.84 54.472 57.84C51.592 57.84 49.112 57.42 47.032 56.58C44.952 55.7 43.232 54.52 41.872 53.04C40.552 51.56 39.572 49.82 38.932 47.82C38.332 45.78 38.032 43.58 38.032 41.22ZM115.7 40.26C115.7 37.38 115.32 35.34 114.56 34.14C113.84 32.94 112.58 32.34 110.78 32.34C110.22 32.34 109.64 32.38 109.04 32.46C108.44 32.5 107.86 32.56 107.3 32.64V57H98.3602V26.52C99.1202 26.32 100 26.12 101 25.92C102.04 25.68 103.12 25.48 104.24 25.32C105.4 25.12 106.58 24.98 107.78 24.9C108.98 24.78 110.16 24.72 111.32 24.72C113.6 24.72 115.44 25.02 116.84 25.62C118.28 26.18 119.46 26.86 120.38 27.66C121.66 26.74 123.12 26.02 124.76 25.5C126.44 24.98 127.98 24.72 129.38 24.72C131.9 24.72 133.96 25.08 135.56 25.8C137.2 26.48 138.5 27.46 139.46 28.74C140.42 30.02 141.08 31.54 141.44 33.3C141.8 35.06 141.98 37.02 141.98 39.18V57H133.04V40.26C133.04 37.38 132.66 35.34 131.9 34.14C131.18 32.94 129.92 32.34 128.12 32.34C127.64 32.34 126.96 32.46 126.08 32.7C125.24 32.94 124.54 33.24 123.98 33.6C124.26 34.52 124.44 35.5 124.52 36.54C124.6 37.54 124.64 38.62 124.64 39.78V57H115.7V40.26ZM150.698 57V15.42H178.538V23.28H160.058V31.98H176.498V39.84H160.058V57H150.698Z" fill="#0000FF"/>
<path d="M77.2177 0.0811539C76.0045 0.345417 75.0564 1.13821 74.8111 2.0874C74.7713 2.25998 74.7515 2.59435 74.7647 2.85322C74.8111 3.44107 75.1095 4.00735 75.6133 4.44419C76.2962 5.02665 77.0254 5.28552 78 5.28552C78.9679 5.28552 79.7038 5.02665 80.3734 4.44959C80.9369 3.96421 81.2485 3.33321 81.2485 2.66446C81.2485 1.90942 80.9435 1.31079 80.2872 0.776867C79.485 0.124299 78.2718 -0.150751 77.2177 0.0811539Z" fill="#C52F00"/>
<path d="M66.1065 0.215992C63.5474 0.43711 62.2944 0.976422 56.3543 4.43881C53.4903 6.10529 51.6406 7.1192 49.9567 7.92816C48.1999 8.78028 47.7689 8.96364 46.0717 9.58385C44.3746 10.2041 44.0298 10.3497 44.0033 10.4629C43.9635 10.6247 44.2884 10.9106 44.6928 11.0831C45.2894 11.3312 46.0386 11.4067 47.106 11.3258C48.5048 11.2126 49.1346 11.067 50.5666 10.5223C52.5356 9.77261 56.109 7.99828 58.2437 6.70932C59.0857 6.20236 60.3718 5.16688 60.763 4.68689C61.3265 3.99118 61.4127 4.03433 61.4127 4.97812C61.4193 6.44505 61.9364 7.48593 63.143 8.46208C63.7994 8.996 64.4225 9.28723 65.3706 9.51374C65.9076 9.64318 66.0733 9.65936 66.9816 9.65936C67.9826 9.65936 67.9893 9.65936 67.9893 9.77801C67.9893 9.84272 67.9031 9.96677 67.7904 10.0531C67.26 10.4629 67.3926 11.1802 68.1484 12.0431C69.0898 13.1164 70.714 13.9091 72.3052 14.0709C73.2863 14.168 74.5725 13.9954 75.4144 13.6557L75.7791 13.5047L75.7592 12.7227C75.7194 10.7488 75.6597 9.37352 75.6133 9.35195C75.5868 9.33577 75.3349 9.37352 75.0631 9.43285C73.4322 9.76722 72.0731 9.54071 71.2179 8.78567C70.787 8.40815 70.5284 7.99288 70.4555 7.56143C70.3693 7.02751 70.4157 6.94662 71.2179 6.31023C72.3383 5.42036 72.7493 4.82712 72.8156 4.02354C72.8554 3.48423 72.7427 3.04199 72.4311 2.49728C72.1195 1.95258 71.7483 1.49956 71.3306 1.17058C70.356 0.388573 68.3473 0.0218391 66.1065 0.215992Z" fill="#C52F00"/>
<path d="M87.5135 0.215992C87.2616 0.242958 86.7843 0.323854 86.4594 0.399359C85.0341 0.728339 84.2584 1.29462 83.5689 2.49189C83.2573 3.0366 83.1446 3.48423 83.1844 4.02354C83.2507 4.82712 83.6617 5.42036 84.7821 6.31023C85.5843 6.94662 85.6307 7.02751 85.5445 7.56143C85.4716 7.99288 85.2131 8.40815 84.7821 8.78567C83.9269 9.54071 82.5678 9.76722 80.9369 9.43285C80.6651 9.37352 80.4132 9.33577 80.3867 9.35195C80.3403 9.37352 80.274 10.8135 80.2408 12.6687L80.2209 13.5047L80.5856 13.6557C81.4275 13.9954 82.7137 14.168 83.6949 14.0709C85.286 13.9091 86.9102 13.1164 87.8516 12.0431C88.6074 11.1802 88.74 10.4629 88.2096 10.0531C88.0969 9.96677 88.0108 9.84272 88.0108 9.77801C88.0108 9.65936 88.0174 9.65936 89.0251 9.65936C89.9267 9.65936 90.0925 9.64318 90.6295 9.51374C91.5775 9.28723 92.2007 8.996 92.857 8.46208C94.0636 7.48593 94.5807 6.44505 94.5873 4.97812C94.5873 4.03433 94.6735 3.99118 95.237 4.68689C95.6282 5.16688 96.9143 6.20236 97.7563 6.70932C99.891 7.99828 103.464 9.77261 105.433 10.5223C106.865 11.067 107.495 11.2126 108.894 11.3258C109.961 11.4067 110.711 11.3312 111.307 11.0831C111.712 10.9106 112.036 10.6247 111.997 10.4629C111.97 10.3497 111.625 10.2041 109.928 9.58385C108.231 8.96364 107.8 8.78028 106.043 7.92816C104.359 7.1192 102.51 6.10529 99.6457 4.43881C96.7221 2.73458 95.7276 2.18448 94.4481 1.55888C92.7774 0.744518 92.0283 0.496435 90.5963 0.296889C89.8339 0.189027 88.15 0.145882 87.5135 0.215992Z" fill="#C52F00"/>
<path d="M75.8586 5.74938C75.8387 5.77634 75.852 6.63924 75.8851 7.68012C75.9117 8.7156 75.9713 10.587 76.0111 11.8328C76.3824 24.2101 76.3824 23.9728 76.2962 23.962C76.0708 23.9296 74.5194 23.5036 73.9228 23.3094C72.1195 22.7216 70.9726 22.0474 70.2367 21.1414C69.7461 20.5373 69.5671 20.0358 69.5273 19.1243C69.4942 18.2075 69.5207 18.159 69.9649 18.4987C70.3627 18.8061 70.5284 18.8924 71.0323 19.0327C71.5825 19.1837 72.4643 19.1837 73.0013 19.0327C74.1349 18.7145 75.2155 17.9109 75.2155 17.3931C75.2155 17.075 74.5658 16.7028 73.6907 16.5141C73.1537 16.4008 71.6687 16.39 71.0057 16.4925C69.9649 16.6543 69.103 17.0264 68.334 17.6412C67.3594 18.4232 66.8556 19.367 66.8556 20.4187C66.8622 22.4088 68.5992 24.2316 72.0201 25.8172L72.8289 26.1893L72.2521 26.5345C71.0256 27.2572 69.9052 28.3358 69.408 29.2742C68.745 30.5146 68.6787 31.9438 69.2224 33.2651C69.8853 34.8831 71.1648 36.1235 73.472 37.3855C73.8101 37.5688 74.0819 37.736 74.0885 37.7522C74.0885 37.7684 74.0222 37.8115 73.936 37.8385C73.6045 37.9625 72.3714 38.7661 71.8344 39.203C70.9394 39.9418 70.3892 40.6807 70.0975 41.5705C69.9118 42.126 69.892 43.2478 70.0643 43.8788C70.535 45.6693 71.7151 47.2603 73.4918 48.5061L74.0885 48.9268L73.7371 49.2288C72.9615 49.8975 72.4112 50.6903 72.1527 51.5101C72.04 51.8768 72.0267 52.0656 72.0466 52.6804C72.0797 53.5271 72.2322 53.9747 72.7162 54.6812C73.1206 55.2637 74.5261 56.3909 75.5669 56.9571L75.8122 57.092L75.2752 57.4857C73.9294 58.4726 73.3593 59.3948 73.3593 60.5598C73.3593 61.1152 73.4918 61.606 73.7835 62.1507C73.9758 62.5013 74.5327 63.17 74.8178 63.3911C74.9835 63.5206 75.0167 63.5314 75.0564 63.4559C75.0763 63.4073 75.0498 63.1431 74.9901 62.868C74.6785 61.455 74.6785 60.9642 75.01 60.3764C75.2421 59.9611 75.3481 59.8425 75.8851 59.3948C76.3028 59.0497 77.3171 58.4241 77.3768 58.4726C77.4166 58.4996 77.4564 59.6591 77.6022 64.9552C77.6486 66.4059 77.7017 67.9106 77.7215 68.2989L77.7679 69H78H78.232L78.2784 68.2989C78.2983 67.9106 78.3514 66.4059 78.3978 64.9552C78.5436 59.6591 78.5834 58.4996 78.6232 58.4726C78.6828 58.4241 79.6972 59.0497 80.1148 59.3948C80.6518 59.8371 80.7579 59.9557 81.0032 60.3818C81.2021 60.7323 81.2154 60.7809 81.2154 61.3957C81.2154 61.8541 81.1689 62.237 81.0562 62.7062C80.9701 63.0676 80.9236 63.4019 80.9435 63.4559C80.9833 63.5314 81.0165 63.5206 81.1822 63.3911C81.4673 63.17 82.0242 62.5013 82.2164 62.1507C82.9523 60.7971 82.7402 59.3841 81.633 58.2569C81.454 58.0735 81.0629 57.7338 80.7645 57.5126L80.2209 57.1028L80.4132 56.9841C81.8319 56.1104 82.8728 55.2691 83.2838 54.6812C83.7678 53.9801 83.9202 53.5271 83.9534 52.6804C83.9733 52.0656 83.96 51.8768 83.8473 51.5101C83.5888 50.6903 83.0385 49.8975 82.2628 49.2288L81.9115 48.9268L82.5678 48.463C84.676 46.9691 85.9489 44.952 86.0682 42.9242C86.1478 41.5598 85.5047 40.3086 84.1589 39.1976C83.6219 38.7607 82.3954 37.9625 82.0639 37.8385C81.9778 37.8061 81.9115 37.7684 81.9115 37.7522C81.9115 37.736 82.0507 37.6497 82.2297 37.5581C82.9324 37.1967 84.1655 36.3985 84.7622 35.9132C87.0163 34.0795 87.7389 31.507 86.6185 29.3174C86.1412 28.3789 84.981 27.2572 83.7479 26.5345L83.1711 26.1893L83.9799 25.8172C87.4008 24.2316 89.1378 22.4088 89.1444 20.4187C89.1444 18.5796 87.4671 16.9401 85.1533 16.5195C84.4572 16.3954 82.886 16.39 82.3092 16.5141C81.4341 16.7028 80.7844 17.075 80.7844 17.3931C80.7844 17.9109 81.8651 18.7145 82.9987 19.0327C83.5357 19.1837 84.4175 19.1837 84.9677 19.0327C85.4716 18.8924 85.6373 18.8061 86.0351 18.4987C86.4793 18.159 86.5058 18.2075 86.4726 19.1243C86.4329 20.0304 86.2605 20.5373 85.7633 21.1414C85.4252 21.562 84.7357 22.1337 84.2318 22.4142C83.7015 22.7054 82.6938 23.1206 81.9115 23.3633C81.275 23.5629 79.9027 23.9296 79.6972 23.962C79.6707 23.962 79.6508 23.7247 79.6508 23.4281C79.664 22.727 79.9159 14.1465 80.1148 7.68012C80.148 6.64464 80.1612 5.77634 80.148 5.75477C80.1016 5.70084 75.8984 5.70084 75.8586 5.74938ZM76.6011 31.6364C76.6409 33.3245 76.694 34.8453 76.7138 35.0179L76.747 35.3361L76.5614 35.239C75.2354 34.5541 74.3736 33.7775 73.9161 32.866C73.7438 32.5209 73.7239 32.4292 73.7239 31.8144C73.7239 31.1996 73.7438 31.1079 73.9095 30.7465C74.2344 30.0778 74.9901 29.3713 75.9448 28.8535C76.2166 28.7079 76.4619 28.5839 76.4818 28.5839C76.5017 28.5785 76.5547 29.9537 76.6011 31.6364ZM80.0883 28.8751C80.8109 29.2634 81.633 29.9753 81.938 30.4661C82.2429 30.9623 82.3358 31.3452 82.2894 31.9762C82.2164 33.2112 81.2684 34.2898 79.4386 35.239L79.253 35.3361L79.2861 35.0179C79.306 34.8453 79.3591 33.3245 79.4055 31.6364C79.4452 29.9537 79.4983 28.5785 79.5115 28.5785C79.5314 28.5785 79.79 28.7133 80.0883 28.8751ZM76.9923 44.2455C77.0254 45.281 77.0387 46.1439 77.0321 46.1547C77.0188 46.1655 76.7735 46.0361 76.4818 45.8635C75.8652 45.5021 75.4343 45.0977 75.1095 44.5691C74.8045 44.0676 74.6852 43.6847 74.6852 43.1885C74.6852 42.2986 75.1824 41.5921 76.3757 40.7724L76.8398 40.4542L76.8862 41.4034C76.9127 41.9319 76.9591 43.2047 76.9923 44.2455ZM79.9358 40.9989C80.8507 41.6514 81.3148 42.3903 81.3148 43.1885C81.3148 44.2509 80.5988 45.281 79.3988 45.939C79.1734 46.0684 78.9745 46.1601 78.9679 46.1493C78.9547 46.1331 79.0276 43.4851 79.1005 41.5328L79.1403 40.438L79.2861 40.5351C79.3591 40.589 79.6574 40.7993 79.9358 40.9989ZM77.2575 53.2682C77.284 54.0449 77.2906 54.6812 77.2707 54.6812C77.2508 54.6812 77.1514 54.5896 77.0387 54.4817C76.3161 53.7482 76.1172 53.3977 76.1105 52.8476C76.1105 52.3406 76.2829 52.0332 76.8 51.6072L77.1713 51.3105L77.1912 51.5802C77.1978 51.7258 77.231 52.4862 77.2575 53.2682ZM79.3193 51.6934C79.7502 52.0925 79.8894 52.3784 79.8894 52.8476C79.8894 53.1766 79.8563 53.3114 79.7038 53.5757C79.5248 53.8831 78.8287 54.6812 78.7359 54.6812C78.716 54.6812 78.716 54.1635 78.7359 53.5379C78.7624 52.9069 78.7823 52.1519 78.7889 51.8606C78.7955 51.3591 78.8022 51.3375 78.9215 51.386C78.9878 51.4184 79.1668 51.5532 79.3193 51.6934Z" fill="#C52F00"/>
<path d="M60.1465 6.05677C60.047 6.1053 59.4636 6.48822 58.8537 6.91427C55.5389 9.24411 53.2252 10.5277 50.5534 11.5146C49.559 11.8867 49.433 11.9892 49.6518 12.2643C49.8109 12.4638 50.1092 12.5501 50.865 12.6202C52.1114 12.7335 53.2583 12.5501 54.5113 12.027C56.0693 11.3798 57.5742 10.6032 59.2714 9.56769C60.6305 8.73176 61.247 8.29491 61.3862 8.06301L61.4989 7.86886L61.2404 7.39426C61.0083 6.98438 60.8956 6.71473 60.6967 6.14305C60.6437 5.98126 60.4117 5.94351 60.1465 6.05677Z" fill="#C52F00"/>
<path d="M95.3032 6.12148C95.2635 6.19698 95.2369 6.28867 95.2369 6.32642C95.2369 6.43967 94.9983 6.9736 94.7397 7.43741C94.5011 7.86886 94.5011 7.86886 94.6138 8.06301C94.8723 8.49985 97.7761 10.285 99.9307 11.3259C102.291 12.4692 103.497 12.7658 105.135 12.6202C105.891 12.5501 106.189 12.4638 106.348 12.2643C106.574 11.9892 106.448 11.8867 105.433 11.5092C102.788 10.5277 100.547 9.28725 97.1993 6.95202C96.5098 6.47203 95.8734 6.05676 95.7872 6.0298C95.5154 5.9489 95.3695 5.97047 95.3032 6.12148Z" fill="#C52F00"/>
<path d="M61.6248 8.55381C61.5718 8.57538 61.0812 8.93672 60.531 9.36817C58.6216 10.8729 57.2824 11.6926 55.0416 12.7443L54.2593 13.1164L54.2792 13.3052C54.2991 13.4831 54.3256 13.5047 54.5974 13.5748C55.0085 13.6773 56.3145 13.6881 56.8515 13.591C57.7929 13.4238 58.92 12.9708 60.1199 12.2697C60.71 11.9299 62.9972 10.3983 63.4016 10.0801C63.753 9.79423 63.68 9.64862 63.0502 9.35199C62.8115 9.23874 62.4536 9.00144 62.2547 8.82886C61.9033 8.52145 61.8304 8.49449 61.6248 8.55381Z" fill="#C52F00"/>
<path d="M93.752 8.82347C93.5465 9.00145 93.1885 9.23874 92.9498 9.352C92.32 9.64862 92.2471 9.79424 92.6051 10.0801C93.0029 10.3983 95.2901 11.9299 95.8801 12.2697C97.1 12.9816 98.1939 13.4238 99.1485 13.591C99.6855 13.6881 100.992 13.6773 101.403 13.5748C101.674 13.5047 101.701 13.4831 101.721 13.3052L101.741 13.1164L100.958 12.7443C98.6977 11.6818 97.3718 10.8675 95.4625 9.36279C94.9122 8.92594 94.3885 8.55921 94.289 8.54303C94.1432 8.51067 94.0702 8.54842 93.752 8.82347Z" fill="#C52F00"/>
<path d="M64.1705 9.98839C64.091 10.0261 63.7993 10.2796 63.5142 10.5547C62.785 11.2666 61.6115 12.2158 60.5176 12.9816C59.9939 13.3483 59.5364 13.6935 59.4967 13.7528C59.3906 13.9146 59.5696 14.098 59.9408 14.2004C60.3254 14.3029 60.7364 14.3083 61.2469 14.2058C63.2358 13.8229 66.65 11.369 66.5174 10.4252C66.4975 10.2688 66.4909 10.2688 65.8677 10.1987C65.3108 10.1394 64.7009 10.0369 64.4092 9.95064C64.3562 9.93446 64.2501 9.95064 64.1705 9.98839Z" fill="#C52F00"/>
<path d="M91.3918 9.99378C91.1598 10.0639 90.5631 10.1556 89.867 10.2311C89.5289 10.2688 89.5024 10.2796 89.4825 10.4252C89.3499 11.369 92.7642 13.8229 94.7531 14.2058C95.2635 14.3083 95.6746 14.3029 96.0591 14.2004C96.4304 14.098 96.6094 13.9146 96.5033 13.7528C96.4635 13.6935 96.0061 13.3483 95.4823 12.9816C94.3884 12.2158 93.215 11.2666 92.4857 10.5547C92.0349 10.1178 91.7697 9.91828 91.657 9.92367C91.6371 9.92367 91.5178 9.95603 91.3918 9.99378Z" fill="#C52F00"/>
</svg>
